<svg width="81" height="31" viewBox="0 0 81 31" fill="none" xmlns="http://www.w3.org/2000/svg">
<path d="M5.332 6.88C6.516 6.88 7.55067 7.10933 8.436 7.568C9.332 8.016 10.02 8.66667 10.5 9.52C10.9907 10.3627 11.236 11.3493 11.236 12.48C11.236 13.6107 10.9907 14.592 10.5 15.424C10.02 16.256 9.332 16.896 8.436 17.344C7.55067 17.7813 6.516 18 5.332 18H1.7V6.88H5.332ZM5.332 16.512C6.63333 16.512 7.63067 16.16 8.324 15.456C9.01733 14.752 9.364 13.76 9.364 12.48C9.364 11.1893 9.01733 10.1813 8.324 9.456C7.63067 8.73067 6.63333 8.368 5.332 8.368H3.524V16.512H5.332ZM21.1238 13.376C21.1238 13.7067 21.1024 14.0053 21.0598 14.272H14.3238C14.3771 14.976 14.6384 15.5413 15.1078 15.968C15.5771 16.3947 16.1531 16.608 16.8358 16.608C17.8171 16.608 18.5104 16.1973 18.9158 15.376H20.8837C20.6171 16.1867 20.1318 16.8533 19.4278 17.376C18.7344 17.888 17.8704 18.144 16.8358 18.144C15.9931 18.144 15.2358 17.9573 14.5638 17.584C13.9024 17.2 13.3798 16.6667 12.9958 15.984C12.6224 15.2907 12.4358 14.4907 12.4358 13.584C12.4358 12.6773 12.6171 11.8827 12.9798 11.2C13.3531 10.5067 13.8704 9.97333 14.5318 9.6C15.2038 9.22667 15.9718 9.04 16.8358 9.04C17.6678 9.04 18.4091 9.22133 19.0598 9.584C19.7104 9.94667 20.2171 10.4587 20.5798 11.12C20.9424 11.7707 21.1238 12.5227 21.1238 13.376ZM19.2198 12.8C19.2091 12.128 18.9691 11.5893 18.4998 11.184C18.0304 10.7787 17.4491 10.576 16.7558 10.576C16.1264 10.576 15.5878 10.7787 15.1398 11.184C14.6918 11.5787 14.4251 12.1173 14.3398 12.8H19.2198ZM24.7428 10.48C25.0521 10.0747 25.4734 9.73333 26.0068 9.456C26.5401 9.17867 27.1428 9.04 27.8148 9.04C28.5828 9.04 29.2814 9.232 29.9108 9.616C30.5508 9.98933 31.0521 10.5173 31.4148 11.2C31.7774 11.8827 31.9588 12.6667 31.9588 13.552C31.9588 14.4373 31.7774 15.232 31.4148 15.936C31.0521 16.6293 30.5508 17.1733 29.9108 17.568C29.2814 17.952 28.5828 18.144 27.8148 18.144C27.1428 18.144 26.5454 18.0107 26.0228 17.744C25.5001 17.4667 25.0734 17.1253 24.7428 16.72V22.192H22.9188V9.184H24.7428V10.48ZM30.1028 13.552C30.1028 12.944 29.9748 12.4213 29.7188 11.984C29.4734 11.536 29.1428 11.2 28.7268 10.976C28.3214 10.7413 27.8841 10.624 27.4148 10.624C26.9561 10.624 26.5188 10.7413 26.1028 10.976C25.6974 11.2107 25.3668 11.552 25.1108 12C24.8654 12.448 24.7428 12.976 24.7428 13.584C24.7428 14.192 24.8654 14.7253 25.1108 15.184C25.3668 15.632 25.6974 15.9733 26.1028 16.208C26.5188 16.4427 26.9561 16.56 27.4148 16.56C27.8841 16.56 28.3214 16.4427 28.7268 16.208C29.1428 15.9627 29.4734 15.6107 29.7188 15.152C29.9748 14.6933 30.1028 14.16 30.1028 13.552ZM35.5865 6.16V18H33.7625V6.16H35.5865ZM41.8053 18.144C40.9733 18.144 40.2213 17.9573 39.5493 17.584C38.8773 17.2 38.3493 16.6667 37.9653 15.984C37.5813 15.2907 37.3893 14.4907 37.3893 13.584C37.3893 12.688 37.5866 11.8933 37.9813 11.2C38.3759 10.5067 38.9146 9.97333 39.5973 9.6C40.2799 9.22667 41.0426 9.04 41.8853 9.04C42.7279 9.04 43.4906 9.22667 44.1733 9.6C44.8559 9.97333 45.3946 10.5067 45.7893 11.2C46.1839 11.8933 46.3813 12.688 46.3813 13.584C46.3813 14.48 46.1786 15.2747 45.7733 15.968C45.3679 16.6613 44.8133 17.2 44.1093 17.584C43.4159 17.9573 42.6479 18.144 41.8053 18.144ZM41.8053 16.56C42.2746 16.56 42.7119 16.448 43.1173 16.224C43.5333 16 43.8693 15.664 44.1253 15.216C44.3813 14.768 44.5093 14.224 44.5093 13.584C44.5093 12.944 44.3866 12.4053 44.1413 11.968C43.8959 11.52 43.5706 11.184 43.1653 10.96C42.7599 10.736 42.3226 10.624 41.8533 10.624C41.3839 10.624 40.9466 10.736 40.5413 10.96C40.1466 11.184 39.8319 11.52 39.5973 11.968C39.3626 12.4053 39.2453 12.944 39.2453 13.584C39.2453 14.5333 39.4853 15.2693 39.9653 15.792C40.4559 16.304 41.0693 16.56 41.8053 16.56ZM56.1204 9.184L50.7124 22.144H48.8244L50.6164 17.856L47.1444 9.184H49.1764L51.6564 15.904L54.2324 9.184H56.1204Z" fill="#111827"/>
<path fill-rule="evenodd" clip-rule="evenodd" d="M64.583 11H66.529C66.618 9.454 66.912 8.03 67.366 6.882C66.635 7.32992 66.0084 7.92919 65.5284 8.6395C65.0483 9.34982 64.726 10.1547 64.583 11ZM70.5 4C68.3783 4 66.3434 4.84285 64.8431 6.34315C63.3429 7.84344 62.5 9.87827 62.5 12C62.5 14.1217 63.3429 16.1566 64.8431 17.6569C66.3434 19.1571 68.3783 20 70.5 20C72.6217 20 74.6566 19.1571 76.1569 17.6569C77.6571 16.1566 78.5 14.1217 78.5 12C78.5 9.87827 77.6571 7.84344 76.1569 6.34315C74.6566 4.84285 72.6217 4 70.5 4ZM70.5 6C70.424 6 70.268 6.032 70.035 6.262C69.797 6.496 69.538 6.885 69.298 7.444C68.909 8.351 68.625 9.586 68.532 11H72.468C72.375 9.586 72.091 8.351 71.702 7.444C71.462 6.884 71.202 6.496 70.965 6.262C70.732 6.032 70.576 6 70.5 6ZM74.471 11C74.382 9.454 74.088 8.03 73.634 6.882C74.365 7.32992 74.9916 7.92919 75.4716 8.6395C75.9517 9.34982 76.274 10.1547 76.417 11H74.471ZM72.468 13H68.532C68.625 14.414 68.909 15.649 69.298 16.556C69.538 17.116 69.798 17.504 70.035 17.738C70.268 17.968 70.424 18 70.5 18C70.576 18 70.732 17.968 70.965 17.738C71.203 17.504 71.463 17.115 71.702 16.556C72.091 15.649 72.375 14.414 72.468 13ZM73.634 17.118C74.088 15.971 74.382 14.546 74.471 13H76.417C76.274 13.8453 75.9517 14.6502 75.4716 15.3605C74.9916 16.0708 74.365 16.6701 73.634 17.118ZM67.366 17.118C66.912 15.97 66.618 14.546 66.53 13H64.583C64.726 13.8453 65.0483 14.6502 65.5284 15.3605C66.0084 16.0708 66.635 16.6701 67.366 17.118Z" fill="black"/>
</svg>
