<svg width="80" height="31" viewBox="0 0 80 31" fill="none" xmlns="http://www.w3.org/2000/svg">
<path d="M9.748 10.08C9.46 9.52533 9.06 9.10933 8.548 8.832C8.036 8.544 7.444 8.4 6.772 8.4C6.036 8.4 5.38 8.56533 4.804 8.896C4.228 9.22667 3.77467 9.696 3.444 10.304C3.124 10.912 2.964 11.616 2.964 12.416C2.964 13.216 3.124 13.9253 3.444 14.544C3.77467 15.152 4.228 15.6213 4.804 15.952C5.38 16.2827 6.036 16.448 6.772 16.448C7.764 16.448 8.56933 16.1707 9.188 15.616C9.80667 15.0613 10.1853 14.3093 10.324 13.36H6.148V11.904H12.276V13.328C12.1587 14.192 11.8493 14.9867 11.348 15.712C10.8573 16.4373 10.212 17.0187 9.412 17.456C8.62267 17.8827 7.74267 18.096 6.772 18.096C5.72667 18.096 4.772 17.856 3.908 17.376C3.044 16.8853 2.356 16.208 1.844 15.344C1.34267 14.48 1.092 13.504 1.092 12.416C1.092 11.328 1.34267 10.352 1.844 9.488C2.356 8.624 3.044 7.952 3.908 7.472C4.78267 6.98133 5.73733 6.736 6.772 6.736C7.956 6.736 9.00667 7.02933 9.924 7.616C10.852 8.192 11.524 9.01333 11.94 10.08H9.748ZM15.003 8.016C14.6723 8.016 14.395 7.904 14.171 7.68C13.947 7.456 13.835 7.17867 13.835 6.848C13.835 6.51733 13.947 6.24 14.171 6.016C14.395 5.792 14.6723 5.68 15.003 5.68C15.323 5.68 15.595 5.792 15.819 6.016C16.043 6.24 16.155 6.51733 16.155 6.848C16.155 7.17867 16.043 7.456 15.819 7.68C15.595 7.904 15.323 8.016 15.003 8.016ZM15.899 9.184V18H14.075V9.184H15.899ZM20.4218 10.672V15.552C20.4218 15.8827 20.4964 16.1227 20.6458 16.272C20.8058 16.4107 21.0724 16.48 21.4458 16.48H22.5658V18H21.1258C20.3044 18 19.6751 17.808 19.2378 17.424C18.8004 17.04 18.5818 16.416 18.5818 15.552V10.672H17.5418V9.184H18.5818V6.992H20.4218V9.184H22.5658V10.672H20.4218ZM28.8069 9.04C29.4789 9.04 30.0762 9.184 30.5989 9.472C31.1322 9.76 31.5482 10.1867 31.8469 10.752C32.1562 11.3173 32.3109 12 32.3109 12.8V18H30.5029V13.072C30.5029 12.2827 30.3055 11.68 29.9109 11.264C29.5162 10.8373 28.9775 10.624 28.2949 10.624C27.6122 10.624 27.0682 10.8373 26.6629 11.264C26.2682 11.68 26.0709 12.2827 26.0709 13.072V18H24.2469V6.16H26.0709V10.208C26.3802 9.83467 26.7695 9.54667 27.2389 9.344C27.7189 9.14133 28.2415 9.04 28.8069 9.04ZM42.6215 9.184V18H40.7975V16.96C40.5095 17.3227 40.1308 17.6107 39.6615 17.824C39.2028 18.0267 38.7122 18.128 38.1895 18.128C37.4962 18.128 36.8722 17.984 36.3175 17.696C35.7735 17.408 35.3415 16.9813 35.0215 16.416C34.7122 15.8507 34.5575 15.168 34.5575 14.368V9.184H36.3655V14.096C36.3655 14.8853 36.5628 15.4933 36.9575 15.92C37.3522 16.336 37.8908 16.544 38.5735 16.544C39.2562 16.544 39.7948 16.336 40.1895 15.92C40.5948 15.4933 40.7975 14.8853 40.7975 14.096V9.184H42.6215ZM46.8521 10.496C47.1615 10.0693 47.5828 9.72267 48.1161 9.456C48.6601 9.17867 49.2628 9.04 49.9241 9.04C50.7028 9.04 51.4068 9.22667 52.0361 9.6C52.6655 9.97333 53.1615 10.5067 53.5241 11.2C53.8868 11.8827 54.0681 12.6667 54.0681 13.552C54.0681 14.4373 53.8868 15.232 53.5241 15.936C53.1615 16.6293 52.6601 17.1733 52.0201 17.568C51.3908 17.952 50.6921 18.144 49.9241 18.144C49.2415 18.144 48.6335 18.0107 48.1001 17.744C47.5775 17.4773 47.1615 17.136 46.8521 16.72V18H45.0281V6.16H46.8521V10.496ZM52.2121 13.552C52.2121 12.944 52.0841 12.4213 51.8281 11.984C51.5828 11.536 51.2521 11.2 50.8361 10.976C50.4308 10.7413 49.9935 10.624 49.5241 10.624C49.0655 10.624 48.6281 10.7413 48.2121 10.976C47.8068 11.2107 47.4761 11.552 47.2201 12C46.9748 12.448 46.8521 12.976 46.8521 13.584C46.8521 14.192 46.9748 14.7253 47.2201 15.184C47.4761 15.632 47.8068 15.9733 48.2121 16.208C48.6281 16.4427 49.0655 16.56 49.5241 16.56C49.9935 16.56 50.4308 16.4427 50.8361 16.208C51.2521 15.9627 51.5828 15.6107 51.8281 15.152C52.0841 14.6933 52.2121 14.16 52.2121 13.552Z" fill="#111827"/>
<path fill-rule="evenodd" clip-rule="evenodd" d="M69.5 2C63.975 2 59.5 6.475 59.5 12C59.5 16.425 62.3625 20.1625 66.3375 21.4875C66.8375 21.575 67.025 21.275 67.025 21.0125C67.025 20.775 67.0125 19.9875 67.0125 19.15C64.5 19.6125 63.85 18.5375 63.65 17.975C63.5375 17.6875 63.05 16.8 62.625 16.5625C62.275 16.375 61.775 15.9125 62.6125 15.9C63.4 15.8875 63.9625 16.625 64.15 16.925C65.05 18.4375 66.4875 18.0125 67.0625 17.75C67.15 17.1 67.4125 16.6625 67.7 16.4125C65.475 16.1625 63.15 15.3 63.15 11.475C63.15 10.3875 63.5375 9.4875 64.175 8.7875C64.075 8.5375 63.725 7.5125 64.275 6.1375C64.275 6.1375 65.1125 5.875 67.025 7.1625C67.825 6.9375 68.675 6.825 69.525 6.825C70.375 6.825 71.225 6.9375 72.025 7.1625C73.9375 5.8625 74.775 6.1375 74.775 6.1375C75.325 7.5125 74.975 8.5375 74.875 8.7875C75.5125 9.4875 75.9 10.375 75.9 11.475C75.9 15.3125 73.5625 16.1625 71.3375 16.4125C71.7 16.725 72.0125 17.325 72.0125 18.2625C72.0125 19.6 72 20.675 72 21.0125C72 21.275 72.1875 21.5875 72.6875 21.4875C74.6726 20.8173 76.3976 19.5414 77.6197 17.8395C78.8418 16.1375 79.4994 14.0952 79.5 12C79.5 6.475 75.025 2 69.5 2Z" fill="black"/>
</svg>
